<svg width="23" height="21" viewBox="0 0 23 21" fill="none" xmlns="http://www.w3.org/2000/svg">
<path d="M0.173828 0.75C0.173828 0.551088 0.251091 0.360322 0.388618 0.21967C0.526146 0.0790178 0.712674 0 0.907168 0H3.10719C3.27077 4.62172e-05 3.42964 0.056026 3.55853 0.159037C3.68742 0.262048 3.77894 0.406176 3.81853 0.5685L4.41253 3H21.4407C21.5521 3.00003 21.662 3.02602 21.7621 3.07598C21.8622 3.12594 21.9499 3.19857 22.0184 3.28836C22.087 3.37814 22.1347 3.48272 22.1578 3.59416C22.181 3.7056 22.179 3.82096 22.152 3.9315L19.952 12.9315C19.9124 13.0938 19.8209 13.238 19.692 13.341C19.5631 13.444 19.4043 13.5 19.2407 13.5H6.04055C5.87697 13.5 5.7181 13.444 5.58921 13.341C5.46031 13.238 5.3688 13.0938 5.32921 12.9315L2.53518 1.5H0.907168C0.712674 1.5 0.526146 1.42098 0.388618 1.28033C0.251091 1.13968 0.173828 0.948912 0.173828 0.75ZM4.7792 4.5L6.61255 12H18.6687L20.502 4.5H4.7792ZM7.50723 16.5C7.11824 16.5 6.74519 16.658 6.47013 16.9393C6.19507 17.2206 6.04055 17.6022 6.04055 18C6.04055 18.3978 6.19507 18.7794 6.47013 19.0607C6.74519 19.342 7.11824 19.5 7.50723 19.5C7.89622 19.5 8.26927 19.342 8.54433 19.0607C8.81938 18.7794 8.97391 18.3978 8.97391 18C8.97391 17.6022 8.81938 17.2206 8.54433 16.9393C8.26927 16.658 7.89622 16.5 7.50723 16.5ZM4.57387 18C4.57387 17.2044 4.88292 16.4413 5.43303 15.8787C5.98314 15.3161 6.72925 15 7.50723 15C8.2852 15 9.03132 15.3161 9.58143 15.8787C10.1315 16.4413 10.4406 17.2044 10.4406 18C10.4406 18.7956 10.1315 19.5587 9.58143 20.1213C9.03132 20.6839 8.2852 21 7.50723 21C6.72925 21 5.98314 20.6839 5.43303 20.1213C4.88292 19.5587 4.57387 18.7956 4.57387 18ZM17.774 16.5C17.385 16.5 17.0119 16.658 16.7369 16.9393C16.4618 17.2206 16.3073 17.6022 16.3073 18C16.3073 18.3978 16.4618 18.7794 16.7369 19.0607C17.0119 19.342 17.385 19.5 17.774 19.5C18.163 19.5 18.536 19.342 18.8111 19.0607C19.0861 18.7794 19.2407 18.3978 19.2407 18C19.2407 17.6022 19.0861 17.2206 18.8111 16.9393C18.536 16.658 18.163 16.5 17.774 16.5ZM14.8406 18C14.8406 17.2044 15.1497 16.4413 15.6998 15.8787C16.2499 15.3161 16.996 15 17.774 15C18.552 15 19.2981 15.3161 19.8482 15.8787C20.3983 16.4413 20.7073 17.2044 20.7073 18C20.7073 18.7956 20.3983 19.5587 19.8482 20.1213C19.2981 20.6839 18.552 21 17.774 21C16.996 21 16.2499 20.6839 15.6998 20.1213C15.1497 19.5587 14.8406 18.7956 14.8406 18Z" fill="#1F1F1F"/>
</svg>
