<svg width="180" height="26" viewBox="0 0 180 26" fill="none" xmlns="http://www.w3.org/2000/svg">
<path d="M49.3484 4.39556C50.2057 4.39756 50.9811 3.77206 51.2349 2.87478C51.6446 1.42795 51.4687 0.936341 50.3016 0.244897C49.6542 -0.136796 48.9327 -0.0788427 48.4132 0.46472C48.1034 0.78846 47.8176 1.15616 47.6138 1.55185C46.9683 2.81883 47.9415 4.39156 49.3484 4.39556Z" fill="#030303"/>
<path d="M64.8138 10.0947C62.1259 8.49 59.1623 8.01838 56.0968 7.96642C54.6919 7.94244 53.303 8.08832 51.9321 8.37209C49.562 8.8637 47.3198 9.66305 45.4713 11.3017C42.8494 13.6219 42.9353 16.8693 45.3854 19.0735C46.4685 20.0487 47.7375 20.7102 49.1084 21.1578C53.2351 22.5107 57.3877 22.4748 61.5284 21.2338C63.3529 20.6882 65.0356 19.8449 66.3865 18.454C68.5188 16.2598 68.4908 13.3961 66.3225 11.2478C65.8689 10.7981 65.3593 10.4204 64.8138 10.0947ZM64.4281 16.1458C63.6627 17.0611 62.6555 17.6247 61.5644 18.0543C59.564 18.8417 57.4817 19.1714 56.2886 19.1574C53.0652 19.1434 50.859 18.8117 48.7946 17.7965C48.1731 17.4908 47.5976 17.1171 47.128 16.5955C46.3126 15.6902 46.2906 14.8669 47.078 13.9276C47.7735 13.1003 48.6747 12.5527 49.6659 12.177C53.9805 10.5403 58.295 10.4604 62.5855 12.265C63.275 12.5547 63.8745 13.0004 64.3781 13.5639C65.1475 14.4232 65.1715 15.2546 64.4261 16.1438L64.4281 16.1458Z" fill="#030303"/>
<path d="M32.1259 17.6714C31.7042 16.972 31.3165 16.2546 30.9888 15.5072C30.1215 13.5248 29.0643 11.6503 27.8753 9.84771C27.4956 9.27018 27.1079 8.70063 26.5983 8.22901C25.9648 7.64148 25.2234 7.38169 24.3581 7.45763C23.207 7.55755 22.1978 8.02118 21.2306 8.6227C20.2074 9.25819 19.3381 10.0855 18.3809 10.8029C17.3158 11.6003 16.6263 11.5583 15.6111 10.703C14.1063 9.43604 12.4317 8.42086 10.735 7.44165C10.2734 7.17586 9.77182 7.02398 9.1743 7C8.22107 7.08393 7.34377 7.48561 6.60836 8.17506C5.77104 8.96042 5.11356 9.89967 4.46808 10.8429C2.78344 13.3089 1.62637 16.0607 0.211504 18.6746C0.127571 18.8305 0.0736147 19.0103 0.0336469 19.1862C-0.112236 19.8237 0.227491 20.4452 0.835003 20.671C1.47249 20.9088 2.078 20.671 2.49966 20.0095C3.37496 18.6307 4.08439 17.1578 4.87975 15.735C5.91692 13.8805 7.054 12.0919 8.49285 10.5152C8.99644 9.96362 9.1703 9.94963 9.7998 10.3333C11.3026 11.2486 12.7774 12.1998 14.1303 13.3349C15.4173 14.416 16.8921 14.5939 18.4808 14.0983C19.554 13.7626 20.3753 13.0511 21.2086 12.3517C21.974 11.7082 22.7614 11.0987 23.6806 10.689C24.494 10.3253 24.6179 10.3493 25.1075 11.0827C26.1946 12.7114 27.2278 14.3741 28.0072 16.1786C28.5847 17.5136 29.3081 18.7685 30.0235 20.0295C30.4732 20.8209 31.2945 21.0987 32.0079 20.737C32.7613 20.3533 33.0291 19.5419 32.6594 18.6846C32.5095 18.3369 32.3237 18.0012 32.1259 17.6754V17.6714Z" fill="#030303"/>
<path d="M77.5049 11.2083C77.9266 11.9077 78.3143 12.6251 78.642 13.3725C79.5093 15.3549 80.5665 17.2294 81.7555 19.032C82.1352 19.6095 82.5229 20.1791 83.0325 20.6507C83.666 21.2382 84.4074 21.498 85.2727 21.4221C86.4238 21.3222 87.4329 20.8585 88.4002 20.257C89.4233 19.6215 90.2926 18.7942 91.2499 18.0768C92.315 17.2794 93.0045 17.3214 94.0197 18.1767C95.5244 19.4437 97.1991 20.4588 98.8957 21.4381C99.3574 21.7038 99.859 21.8557 100.456 21.8797C101.41 21.7958 102.287 21.3941 103.022 20.7047C103.86 19.9193 104.517 18.98 105.163 18.0368C106.847 15.5708 108.004 12.819 109.419 10.2051C109.503 10.0492 109.557 9.86936 109.597 9.6935C109.743 9.05601 109.403 8.43451 108.796 8.20869C108.158 7.97088 107.553 8.20869 107.131 8.87016C106.256 10.2491 105.546 11.7219 104.751 13.1447C103.714 14.9992 102.577 16.7878 101.138 18.3645C100.634 18.9161 100.46 18.9301 99.831 18.5464C98.3282 17.6311 96.8534 16.6799 95.5005 15.5448C94.2135 14.4637 92.7387 14.2858 91.15 14.7814C90.0768 15.1171 89.2555 15.8286 88.4221 16.528C87.6568 17.1715 86.8694 17.781 85.9501 18.1907C85.1368 18.5544 85.0129 18.5304 84.5233 17.797C83.4362 16.1683 82.403 14.5056 81.6236 12.7011C81.0461 11.3662 80.3227 10.1112 79.6072 8.85018C79.1576 8.05881 78.3363 7.78104 77.6228 8.14275C76.8694 8.52644 76.6017 9.33779 76.9714 10.1951C77.1212 10.5428 77.3071 10.8785 77.5049 11.2043V11.2083Z" fill="#030303"/>
<path d="M159.755 6.31574C161.042 6.29975 162.231 5.23261 162.211 4.10552C162.193 3.05436 161.224 2.05517 160.206 2.04118C159.013 2.02519 157.858 3.20424 157.862 4.43525C157.864 5.51239 158.688 6.32973 159.755 6.31574Z" fill="#030303"/>
<path d="M62.6438 5.04886C63.3792 4.85502 63.9487 4.02169 63.9607 3.06046C63.9188 2.77669 63.8768 2.43696 63.8168 2.09723C63.645 1.11802 62.7217 0.606431 61.8104 1.0161C61.133 1.31986 60.6214 1.84943 60.2417 2.47093C59.93 2.98252 59.9679 3.54807 60.2737 4.07364C60.6834 4.77708 61.8584 5.2547 62.6438 5.04686V5.04886Z" fill="#030303"/>
<path d="M171.735 5.38903C173.018 6.13443 175.131 4.37784 174.993 3.3007C174.971 2.0637 173.76 1.18041 172.467 1.46018C171.558 1.65603 170.788 2.48736 170.664 3.41062C170.56 4.176 171.05 4.98935 171.737 5.38903H171.735Z" fill="#030303"/>
<path d="M179.409 15.6321C179.087 13.3939 177.808 11.7372 175.976 10.4982C173.52 8.83752 170.758 8.21802 167.259 8.21602C165.604 8.19004 163.456 8.59372 161.405 9.44104C158.995 10.4362 156.895 11.8451 155.56 14.1792C154.105 16.7232 154.311 19.5709 156.124 21.8671C157.465 23.5657 159.257 24.5889 161.279 25.2403C163.757 26.0377 166.291 26.1816 168.859 25.7899C171.905 25.3263 174.675 24.2371 176.921 22.0689C178.731 20.3223 179.781 18.222 179.409 15.6321ZM175.094 19.6968C173.476 21.3834 171.419 22.2408 169.183 22.7184C168.206 22.9262 167.215 23.0441 166.21 23.0141C163.749 22.9802 161.417 22.4985 159.413 20.9658C157.265 19.3251 157.011 16.993 158.7 14.8947C160.148 13.0941 162.117 12.1908 164.279 11.6453C167.245 10.8979 170.17 10.9918 173.008 12.2348C173.542 12.4686 174.041 12.7604 174.509 13.1061C176.927 14.8807 177.169 17.5385 175.094 19.6988V19.6968Z" fill="#030303"/>
<path d="M145.638 10.864C145.834 9.84079 144.825 9.03544 143.849 9.39115C143.032 9.68891 142.896 10.3844 142.862 11.1038C142.808 12.2269 142.8 13.354 142.788 14.4791C142.786 14.7788 142.69 14.8827 142.381 14.8887C140.766 14.9187 139.153 14.9707 137.539 15.0166C135.58 15.0726 133.62 15.1046 131.663 15.1925C129.851 15.2744 128.042 15.4023 126.232 15.5322C124.873 15.6301 123.534 15.858 122.203 16.1477C122.027 16.1857 121.743 16.3655 121.719 15.9679C121.623 14.4491 121.392 12.9363 121.533 11.4095C121.597 10.7221 121.268 10.1505 120.658 9.9547C120.019 9.74687 119.399 10.0147 119.059 10.6401C118.856 11.0178 118.792 11.4215 118.784 11.8472C118.746 14.0634 118.886 16.2716 119.049 18.4798C119.185 20.3084 119.155 22.1429 119.189 23.9754C119.207 25.0186 119.979 25.6841 120.92 25.5202C121.637 25.3963 122.129 24.7868 122.131 23.9315C122.135 22.4067 122.185 20.8819 122.035 19.3611C122.003 19.0414 122.039 18.8875 122.417 18.8236C123.67 18.6177 124.923 18.4299 126.192 18.34C128.82 18.1521 131.453 18.242 134.083 18.0962C134.409 18.0962 134.737 18.1061 135.063 18.0962C137.457 18.0162 139.853 17.9423 142.245 17.8404C142.706 17.8204 142.854 17.9762 142.838 18.4199C142.816 19.0914 142.836 19.7628 142.838 20.4343C142.84 21.7772 142.824 23.1201 142.852 24.463C142.87 25.3283 143.484 25.9279 144.287 25.9378C145.094 25.9498 145.708 25.3703 145.78 24.515C145.804 24.2272 145.788 23.9355 145.794 23.6437C145.886 19.8487 145.528 16.0638 145.542 12.2708C145.542 11.8012 145.55 11.3376 145.64 10.866L145.638 10.864Z" fill="#030303"/>
</svg>
