<svg width="20" height="21" viewBox="0 0 20 21" fill="none" xmlns="http://www.w3.org/2000/svg">
<path d="M14.7719 5.93478C14.7719 8.79826 12.4506 11.1196 9.58713 11.1196C6.72365 11.1196 4.40234 8.79826 4.40234 5.93478C4.40234 3.07131 6.72365 0.75 9.58713 0.75C12.4506 0.75 14.7719 3.07131 14.7719 5.93478Z" stroke="#1F1F1F" stroke-width="1.5" stroke-linecap="round" stroke-linejoin="round"/>
<mask id="path-2-inside-1_246_536" fill="white">
<path d="M0 20.9996C0 16.4344 3.65217 11.8691 9.58696 11.8691C15.5217 11.8691 19.1739 16.4344 19.1739 20.9996"/>
</mask>
<path d="M-1.5 20.9996C-1.5 21.828 -0.828427 22.4996 0 22.4996C0.828427 22.4996 1.5 21.828 1.5 20.9996H-1.5ZM17.6739 20.9996C17.6739 21.828 18.3455 22.4996 19.1739 22.4996C20.0023 22.4996 20.6739 21.828 20.6739 20.9996H17.6739ZM1.5 20.9996C1.5 17.2144 4.52813 13.3691 9.58696 13.3691V10.3691C2.77622 10.3691 -1.5 15.6543 -1.5 20.9996H1.5ZM9.58696 13.3691C14.6458 13.3691 17.6739 17.2144 17.6739 20.9996H20.6739C20.6739 15.6543 16.3977 10.3691 9.58696 10.3691V13.3691Z" fill="#1F1F1F" mask="url(#path-2-inside-1_246_536)"/>
</svg>
